# xmcd CD database file
#
# Track frame offsets:
#	150
#	16508
#	34124
#	53339
#	61756
#	79365
#	91292
#	104386
#	121407
#	130823
#	148190
#	166280
#
# Disc length: 2580 seconds
#
# Revision: 2
# Processed by: cddbd v1.4PL0 Copyright (c) Steve Scherf et al.
# Submitted via: CDex 1.50Beta1
#
DISCID=920a120c
DTITLE=Enya - Shepherd Moons
DYEAR=1900
DGENRE=New Age
TTITLE0=Shepherd Moons
TTITLE1=Caribbean Blue
TTITLE2=How Can I Keep from Singing?
TTITLE3=Ebudae
TTITLE4=Angeles
TTITLE5=No Holly for Miss Quinn
TTITLE6=Book of Days
TTITLE7=Evacuee
TTITLE8=Lothlórien
TTITLE9=Marble Halls
TTITLE10=Afer Ventus
TTITLE11=Smaointe...
EXTD=
EXTT0=
EXTT1=
EXTT2=
EXTT3=
EXTT4=
EXTT5=
EXTT6=
EXTT7=
EXTT8=
EXTT9=
EXTT10=
EXTT11=
PLAYORDER=
